<svg xmlns="http://www.w3.org/2000/svg" width="40" height="40" viewBox="0 0 40 40"><defs><clipPath id="q9cma"><path fill="#fff" d="M0 41V0h40v41zm3.969-20.875c0 8.82 7.163 15.969 16 15.969 8.836 0 16-7.15 16-15.97 0-8.818-7.164-15.968-16-15.968-8.837 0-16 7.15-16 15.969z"/></clipPath></defs><g><g><path fill="#1cd7ad" d="M19.969 4.156c8.836 0 16 7.15 16 15.969 0 8.82-7.164 15.969-16 15.969-8.837 0-16-7.15-16-15.97 0-8.818 7.163-15.968 16-15.968z"/><path fill="none" stroke="#fff" stroke-linecap="round" stroke-linejoin="round" stroke-miterlimit="50" stroke-width="8" d="M19.969 4.156c8.836 0 16 7.15 16 15.969 0 8.82-7.164 15.969-16 15.969-8.837 0-16-7.15-16-15.97 0-8.818 7.163-15.968 16-15.968z" clip-path="url(&quot;#q9cma&quot;)"/></g><g><path fill="#fff" d="M27.97 26.363c0 .645-.608.786-2.7.934-1.42.1-3.303.155-5.304.155-2.002 0-3.885-.055-5.304-.155-2.092-.148-2.7-.289-2.7-.934 0-.646.608-.787 2.7-.934a57.266 57.266 0 0 1 2.031-.102c-1.484-1.287-2.46-3.42-2.46-5.833 0-.311.251-.564.56-.564h10.345c.31 0 .56.253.56.564 0 .299-.02.59-.049.88a1.597 1.597 0 0 1 1.76.721c.223.37.29.804.189 1.225a1.608 1.608 0 0 1-1.94 1.191 1.584 1.584 0 0 1-.75-.43 6.842 6.842 0 0 1-1.673 2.246c.743.025 1.432.059 2.034.102 2.093.147 2.7.288 2.7.934zm-2.772-3.978c.013.014.03.025.04.043a.929.929 0 0 0 1.285.315.934.934 0 0 0 .423-.583.943.943 0 0 0-.11-.713.932.932 0 0 0-1.286-.315c-.004.002-.009.002-.013.005-.083.432-.195.85-.339 1.248zm-5.232 3.097c2.397 0 4.374-2.386 4.593-5.424h-9.187c.22 3.038 2.196 5.424 4.594 5.424zm-1.982-8.36c-.279-.582-.074-1.411.607-2.465a8.25 8.25 0 0 0 .146-.233l.022-.037c.589-.99.534-1.422.484-1.56-.035-.096-.096-.126-.098-.127-.218-.064-.354-.317-.284-.556a.454.454 0 0 1 .558-.304c.047.014.476.152.665.674.212.58.02 1.376-.572 2.364-.556 1.038-.128 2.283-.123 2.296a.453.453 0 0 1-.422.606l-.038-.002c-.247-.023-.72-.186-.945-.656zm2.627.254c-.198-.412-.073-.955.382-1.658l.078-.125.026-.043c.35-.589.29-.803.281-.825.002 0 .02.009.046.017a.424.424 0 0 1 .24-.815.809.809 0 0 1 .505.504c.148.407.03.924-.363 1.58-.306.57-.066 1.276-.063 1.283a.425.425 0 0 1-.397.569l-.031-.001a.884.884 0 0 1-.704-.486z"/></g></g></svg>