<svg xmlns="http://www.w3.org/2000/svg" width="40" height="40" viewBox="0 0 40 40"><defs><clipPath id="luoba"><path fill="#fff" d="M0 41V0h40v41zm3.969-20.86c0 8.829 7.163 15.985 16 15.985 8.836 0 16-7.156 16-15.984s-7.164-15.985-16-15.985c-8.837 0-16 7.157-16 15.985z"/></clipPath></defs><g><g><path fill="#4e73db" d="M19.969 4.156c8.836 0 16 7.157 16 15.985s-7.164 15.984-16 15.984c-8.837 0-16-7.156-16-15.984s7.163-15.985 16-15.985z"/><path fill="none" stroke="#fff" stroke-linecap="round" stroke-linejoin="round" stroke-miterlimit="50" stroke-width="8" d="M19.969 4.156c8.836 0 16 7.157 16 15.985s-7.164 15.984-16 15.984c-8.837 0-16-7.156-16-15.984s7.163-15.985 16-15.985z" clip-path="url(&quot;#luoba&quot;)"/></g><g><path fill="#fff" d="M26.509 13.88l-2.91 11.88a.163.163 0 0 1-.205.116l-5.822-1.756a.16.16 0 0 1-.076-.256l5.795-6.791-7.545 6.385a.16.16 0 0 1-.156.034l-4.96-1.562a.16.16 0 1 1-.024-.296L26.278 13.7a.16.16 0 1 1 .23.18zm-7.13 12.073a.156.156 0 0 1-.014.14l-1.609 2.518a.163.163 0 0 1-.181.068.16.16 0 0 1-.117-.154v-3.007c0-.05.024-.098.066-.129a.16.16 0 0 1 .143-.024l1.609.49c.048.015.086.051.104.098z"/></g></g></svg>