<svg xmlns="http://www.w3.org/2000/svg" width="40" height="40" viewBox="0 0 40 40"><defs><clipPath id="admja"><path fill="#fff" d="M-1 40V0h41v40zM19.953 4.062c-8.845 0-16.015 7.143-16.015 15.954 0 8.81 7.17 15.953 16.015 15.953S35.97 28.826 35.97 20.016c0-8.811-7.17-15.954-16.016-15.954z"/></clipPath></defs><g><g><path fill="#ffa507" d="M19.953 4.062c8.845 0 16.016 7.143 16.016 15.954 0 8.81-7.17 15.953-16.016 15.953-8.845 0-16.015-7.143-16.015-15.953 0-8.811 7.17-15.954 16.015-15.954z"/><path fill="none" stroke="#fff" stroke-linecap="round" stroke-linejoin="round" stroke-miterlimit="50" stroke-width="8" d="M19.953 4.062c8.845 0 16.016 7.143 16.016 15.954 0 8.81-7.17 15.953-16.016 15.953-8.845 0-16.015-7.143-16.015-15.953 0-8.811 7.17-15.954 16.015-15.954z" clip-path="url(&quot;#admja&quot;)"/></g><g><path fill="#fff" d="M26.071 27.369a1.479 1.479 0 0 1-1.227.648h-8.722a1.48 1.48 0 0 1-1.228-.648 1.455 1.455 0 0 1-.142-1.372l3.059-8.25v-2.433a1.47 1.47 0 0 1-.995-1.385v-.397c0-.809.664-1.466 1.48-1.466h4.374c.816 0 1.48.657 1.48 1.466v.397a1.47 1.47 0 0 1-.995 1.385v2.432l3.065 8.267c.18.437.127.95-.149 1.356zm-7.459-2.73c.28 0 .506-.223.506-.5s-.226-.5-.506-.5a.5.5 0 1 0 0 1zm1.876.798c0 .477.389.865.871.865a.868.868 0 0 0 .871-.865.868.868 0 0 0-.871-.862.867.867 0 0 0-.87.862zm.758-2.132c.346 0 .627-.28.627-.623a.626.626 0 0 0-.627-.622.627.627 0 0 0-.629.622c0 .343.282.623.63.623zm-3.598-2.308h.045s4.67-.076 5.308-.734l.034-.03-.859-2.314v-3.494h.49a.5.5 0 0 0 .505-.496v-.397a.499.499 0 0 0-.501-.496h-4.375a.5.5 0 0 0-.5.496v.397a.5.5 0 0 0 .5.496h.49l.004.485v3.009zm1.812-1.886a.68.68 0 0 1 .682-.676.68.68 0 0 1 .68.676.68.68 0 0 1-.68.676.68.68 0 0 1-.682-.676z"/></g></g></svg>